<svg width="278" height="54" viewBox="0 0 278 54" fill="none" xmlns="http://www.w3.org/2000/svg">
<path d="M0 14L30.0444 40L60.0889 14L30.0444 22L0 14Z" fill="#2B97D3"/>
<path opacity="0.12" d="M30.0444 22V40L17 18.5L30.0444 22Z" fill="black"/>
<path d="M104.161 14.872L97.1409 40H91.2009L86.4849 22.108L81.5529 40L75.6489 40.036L68.8809 14.872H74.2809L78.7089 34.384L83.8209 14.872H89.4369L94.2609 34.276L98.7249 14.872H104.161ZM112.492 18.94V25.24H120.952V29.236H112.492V35.896H122.032V40H107.452V14.836H122.032V18.94H112.492ZM140.868 27.112C142.284 27.376 143.448 28.084 144.36 29.236C145.272 30.388 145.728 31.708 145.728 33.196C145.728 34.54 145.392 35.728 144.72 36.76C144.072 37.768 143.124 38.56 141.876 39.136C140.628 39.712 139.152 40 137.448 40H126.612V14.872H136.98C138.684 14.872 140.148 15.148 141.372 15.7C142.62 16.252 143.556 17.02 144.18 18.004C144.828 18.988 145.152 20.104 145.152 21.352C145.152 22.816 144.756 24.04 143.964 25.024C143.196 26.008 142.164 26.704 140.868 27.112ZM131.652 25.24H136.26C137.46 25.24 138.384 24.976 139.032 24.448C139.68 23.896 140.004 23.116 140.004 22.108C140.004 21.1 139.68 20.32 139.032 19.768C138.384 19.216 137.46 18.94 136.26 18.94H131.652V25.24ZM136.728 35.896C137.952 35.896 138.9 35.608 139.572 35.032C140.268 34.456 140.616 33.64 140.616 32.584C140.616 31.504 140.256 30.664 139.536 30.064C138.816 29.44 137.844 29.128 136.62 29.128H131.652V35.896H136.728ZM158.529 14.872C161.169 14.872 163.485 15.388 165.477 16.42C167.493 17.452 169.041 18.928 170.121 20.848C171.225 22.744 171.777 24.952 171.777 27.472C171.777 29.992 171.225 32.2 170.121 34.096C169.041 35.968 167.493 37.42 165.477 38.452C163.485 39.484 161.169 40 158.529 40H149.745V14.872H158.529ZM158.349 35.716C160.989 35.716 163.029 34.996 164.469 33.556C165.909 32.116 166.629 30.088 166.629 27.472C166.629 24.856 165.909 22.816 164.469 21.352C163.029 19.864 160.989 19.12 158.349 19.12H154.785V35.716H158.349ZM180.589 18.94V25.24H189.049V29.236H180.589V35.896H190.129V40H175.549V14.836H190.129V18.94H180.589ZM217.282 14.872L208.066 40H201.946L192.73 14.872H198.13L205.042 34.852L211.918 14.872H217.282ZM225.343 14.872V40H220.303V14.872H225.343ZM244.507 40L235.363 28.804V40H230.323V14.872H235.363V26.14L244.507 14.872H250.591L240.223 27.328L250.879 40H244.507ZM259.234 18.94V25.24H267.694V29.236H259.234V35.896H268.774V40H254.194V14.836H268.774V18.94H259.234Z" fill="white"/>
</svg>
