<svg width="278" height="45" viewBox="0 0 278 45" fill="none" xmlns="http://www.w3.org/2000/svg">
<path d="M0 9.5L30.0444 35.5L60.0889 9.5L30.0444 17.5L0 9.5Z" fill="#2B97D3"/>
<path opacity="0.15" d="M30.0444 17.5V35.5L17 14L30.0444 17.5Z" fill="black"/>
<path d="M95.4404 28.793C95.4404 29.8359 95.2412 30.8203 94.8428 31.7461C94.4561 32.6602 93.917 33.4629 93.2256 34.1543C92.5459 34.834 91.7432 35.373 90.8174 35.7715C89.9033 36.1582 88.9248 36.3516 87.8818 36.3516C86.9443 36.3516 86.042 36.1875 85.1748 35.8594C84.3193 35.5312 83.5459 35.0508 82.8545 34.418C82.1631 35.0508 81.3838 35.5312 80.5166 35.8594C79.6494 36.1875 78.7471 36.3516 77.8096 36.3516C76.7666 36.3516 75.7822 36.1582 74.8564 35.7715C73.9424 35.373 73.1396 34.834 72.4482 34.1543C71.7686 33.4629 71.2295 32.6602 70.8311 31.7461C70.4443 30.8203 70.251 29.8359 70.251 28.793V10.793H75.2959V28.793C75.2959 29.1445 75.3604 29.4785 75.4893 29.7949C75.6182 30.0996 75.7939 30.3691 76.0166 30.6035C76.251 30.8262 76.5205 31.002 76.8252 31.1309C77.1299 31.2598 77.458 31.3242 77.8096 31.3242C78.1611 31.3242 78.4893 31.2598 78.7939 31.1309C79.0986 31.002 79.3623 30.8262 79.585 30.6035C79.8193 30.3691 80.001 30.0996 80.1299 29.7949C80.2588 29.4785 80.3232 29.1445 80.3232 28.793V10.793H85.3682V28.793C85.3682 29.1445 85.4326 29.4785 85.5615 29.7949C85.6904 30.0996 85.8662 30.3691 86.0889 30.6035C86.3232 30.8262 86.5928 31.002 86.8975 31.1309C87.2021 31.2598 87.5303 31.3242 87.8818 31.3242C88.2334 31.3242 88.5615 31.2598 88.8662 31.1309C89.1709 31.002 89.4346 30.8262 89.6572 30.6035C89.8916 30.3691 90.0732 30.0996 90.2021 29.7949C90.3428 29.4785 90.4131 29.1445 90.4131 28.793V10.793H95.4404V28.793ZM117.237 36H99.958V10.793H117.237V15.8379H105.003V20.8828H113.282V25.9277H105.003V30.9551H117.237V36ZM140.933 28.4414C140.933 29.4844 140.733 30.4629 140.335 31.377C139.937 32.291 139.392 33.0938 138.7 33.7852C138.021 34.4648 137.224 35.0039 136.31 35.4023C135.396 35.8008 134.417 36 133.374 36H120.771V10.793H133.374C134.417 10.793 135.396 10.9922 136.31 11.3906C137.224 11.7891 138.021 12.334 138.7 13.0254C139.392 13.7051 139.937 14.502 140.335 15.416C140.733 16.3301 140.933 17.3086 140.933 18.3516C140.933 18.8203 140.868 19.3008 140.739 19.793C140.61 20.2852 140.429 20.7598 140.194 21.2168C139.96 21.6738 139.679 22.0898 139.351 22.4648C139.022 22.8398 138.659 23.1504 138.261 23.3965C138.671 23.6191 139.04 23.9238 139.368 24.3105C139.696 24.6855 139.978 25.1016 140.212 25.5586C140.446 26.0156 140.622 26.4961 140.739 27C140.868 27.4922 140.933 27.9727 140.933 28.4414ZM125.815 30.9551H133.374C133.726 30.9551 134.054 30.8906 134.358 30.7617C134.663 30.6328 134.927 30.457 135.149 30.2344C135.384 30 135.565 29.7305 135.694 29.4258C135.823 29.1211 135.888 28.793 135.888 28.4414C135.888 28.0898 135.823 27.7617 135.694 27.457C135.565 27.1523 135.384 26.8887 135.149 26.666C134.927 26.4316 134.663 26.25 134.358 26.1211C134.054 25.9922 133.726 25.9277 133.374 25.9277H125.815V30.9551ZM125.815 20.8828H133.374C133.726 20.8828 134.054 20.8184 134.358 20.6895C134.663 20.5605 134.927 20.3848 135.149 20.1621C135.384 19.9277 135.565 19.6582 135.694 19.3535C135.823 19.0371 135.888 18.7031 135.888 18.3516C135.888 18 135.823 17.6719 135.694 17.3672C135.565 17.0625 135.384 16.7988 135.149 16.5762C134.927 16.3418 134.663 16.1602 134.358 16.0312C134.054 15.9023 133.726 15.8379 133.374 15.8379H125.815V20.8828ZM164.944 23.3965C164.944 24.5566 164.792 25.6758 164.487 26.7539C164.194 27.8203 163.772 28.8223 163.222 29.7598C162.671 30.6855 162.015 31.5352 161.253 32.3086C160.491 33.0703 159.642 33.7266 158.704 34.2773C157.767 34.8281 156.759 35.2559 155.681 35.5605C154.614 35.8535 153.501 36 152.341 36H144.747V10.793H152.341C153.501 10.793 154.614 10.9453 155.681 11.25C156.759 11.543 157.767 11.9648 158.704 12.5156C159.642 13.0664 160.491 13.7285 161.253 14.502C162.015 15.2637 162.671 16.1133 163.222 17.0508C163.772 17.9766 164.194 18.9785 164.487 20.0566C164.792 21.123 164.944 22.2363 164.944 23.3965ZM159.899 23.3965C159.899 22.3535 159.7 21.375 159.302 20.4609C158.915 19.5469 158.376 18.75 157.685 18.0703C157.005 17.3789 156.202 16.834 155.276 16.4355C154.362 16.0371 153.384 15.8379 152.341 15.8379H149.827V30.9551H152.341C153.384 30.9551 154.362 30.7617 155.276 30.375C156.202 29.9766 157.005 29.4375 157.685 28.7578C158.376 28.0664 158.915 27.2637 159.302 26.3496C159.7 25.4238 159.899 24.4395 159.899 23.3965ZM185.581 36H168.302V10.793H185.581V15.8379H173.347V20.8828H181.626V25.9277H173.347V30.9551H185.581V36ZM208.38 10.793L200.101 36H195.056L186.812 10.793H192.542L197.569 27.6152L202.614 10.793H208.38ZM215.851 36H210.806V10.793H215.851V36ZM225.589 36H220.544V10.793H225.589V23.3965L234.976 10.793H240.706L232.743 21.4277L240.706 36H234.976L229.438 25.8047L225.589 30.9551V36ZM260.323 36H243.044V10.793H260.323V15.8379H248.089V20.8828H256.368V25.9277H248.089V30.9551H260.323V36Z" fill="#0F212D"/>
</svg>
